<svg xmlns="http://www.w3.org/2000/svg" viewBox="0 0 500 500"><g id="freepik--background-complete--inject-66"><rect x="416.78" y="398.49" width="33.12" height="0.25" style="fill:#ebebeb"></rect><rect x="322.53" y="401.21" width="8.69" height="0.25" style="fill:#ebebeb"></rect><rect x="396.59" y="389.21" width="19.19" height="0.25" style="fill:#ebebeb"></rect><rect x="52.46" y="390.89" width="43.19" height="0.25" style="fill:#ebebeb"></rect><rect x="104.56" y="390.89" width="6.33" height="0.25" style="fill:#ebebeb"></rect><rect x="131.47" y="395.11" width="93.68" height="0.25" style="fill:#ebebeb"></rect><path d="M237,337.8H43.92a5.71,5.71,0,0,1-5.71-5.71V60.66A5.71,5.71,0,0,1,43.92,55H237a5.71,5.71,0,0,1,5.71,5.71V332.09A5.71,5.71,0,0,1,237,337.8ZM43.92,55.2a5.47,5.47,0,0,0-5.46,5.46V332.09a5.47,5.47,0,0,0,5.46,5.46H237a5.47,5.47,0,0,0,5.46-5.46V60.66A5.47,5.47,0,0,0,237,55.2Z" style="fill:#ebebeb"></path><path d="M453.31,337.8H260.21a5.72,5.72,0,0,1-5.71-5.71V60.66A5.72,5.72,0,0,1,260.21,55h193.1A5.71,5.71,0,0,1,459,60.66V332.09A5.71,5.71,0,0,1,453.31,337.8ZM260.21,55.2a5.47,5.47,0,0,0-5.46,5.46V332.09a5.47,5.47,0,0,0,5.46,5.46h193.1a5.47,5.47,0,0,0,5.46-5.46V60.66a5.47,5.47,0,0,0-5.46-5.46Z" style="fill:#ebebeb"></path><rect y="382.4" width="500" height="0.25" style="fill:#ebebeb"></rect><path d="M353.26,130c-23.09-.93-88.34-1.71-87.91-28.52s30.22-1.53,30.22-1.53,11.75-32,28.89-27.9,21.22,31.55,21.22,31.55S354,73.47,374.18,85.5c15.09,9,9.62,31.53,9.62,31.53s21.89-7.83,23.39,4.25S366.9,130.53,353.26,130Z" style="fill:#f5f5f5"></path><path d="M92.64,194.44c-10-.4-38.38-.74-38.2-12.39s13.14-.66,13.14-.66,5.1-13.92,12.55-12.13S89.35,183,89.35,183s3.6-13.08,12.38-7.85c6.56,3.9,4.18,13.7,4.18,13.7s9.52-3.41,10.17,1.84S98.57,194.68,92.64,194.44Z" style="fill:#f5f5f5"></path><path d="M435.9,170.93c-19.92,10-86.67,6.49-83.55-13.17s18.1,0,18.1,0,1.32-20.37,15.27-21.08,16.37,18.62,16.37,18.62,3.22-15.92,11.8-11.92,7.79,16.85,7.79,16.85,6.87-4.91,11.32-2.47S438.92,169.42,435.9,170.93Z" style="fill:#f5f5f5"></path><path d="M433.86,368.52c4.92-8.35,4.58-17.95-1.31-22.8a13.13,13.13,0,0,0-8.68-2.83c.35-8.11-2.3-15.49-8-20.22-8-6.57-19.79-6.33-30.52-.49C373,304.39,352.68,296.71,338.24,305a26.35,26.35,0,0,0-10.92,12.63c-20.71-7.36-42-1.56-48.73,13.88a25.37,25.37,0,0,0-1.95,12.78c-6.07-1.29-11.89.08-15.32,4.25-4.28,5.18-3.6,13.15,1,19.94Z" style="fill:#f0f0f0"></path><path d="M372.92,332.28s-4.09,9.34,8.8,11C381.72,343.26,386.84,334.82,372.92,332.28Z" style="fill:#e0e0e0"></path><path d="M372.92,332.28s7.37,3.81,8.8,11C381.72,343.26,386.84,334.82,372.92,332.28Z" style="fill:#fafafa"></path><path d="M391.59,340.73s-3.73,8.5,8,10C399.61,350.72,404.27,343,391.59,340.73Z" style="fill:#e0e0e0"></path><path d="M391.59,340.73s6.72,3.47,8,10C399.61,350.72,404.27,343,391.59,340.73Z" style="fill:#fafafa"></path><path d="M392.08,331.18s-6.48,2.53-1.05,9.55C391,340.73,397.57,339.12,392.08,331.18Z" style="fill:#e0e0e0"></path><path d="M392.08,331.18s1.71,5.4-1.05,9.55C391,340.73,397.57,339.12,392.08,331.18Z" style="fill:#fafafa"></path><path d="M403.21,334.66s-6.37-2.79-7.48,6C395.73,340.67,401.48,344.16,403.21,334.66Z" style="fill:#e0e0e0"></path><path d="M403.21,334.66s-2.59,5-7.48,6C395.73,340.67,401.48,344.16,403.21,334.66Z" style="fill:#fafafa"></path><path d="M301.24,343.41s4.1,9.34-8.8,11C292.44,354.39,287.32,346,301.24,343.41Z" style="fill:#e0e0e0"></path><path d="M301.24,343.41s-7.37,3.81-8.8,11C292.44,354.39,287.32,346,301.24,343.41Z" style="fill:#fafafa"></path><path d="M319.31,338.86s-9.33-4.09-11,8.8C308.34,347.66,316.77,352.78,319.31,338.86Z" style="fill:#e0e0e0"></path><path d="M319.31,338.86s-3.81,7.37-11,8.8C308.34,347.66,316.77,352.78,319.31,338.86Z" style="fill:#fafafa"></path><path d="M312.05,333.08s-2.87,8.84-12.64,2.14C299.41,335.22,301,326.38,312.05,333.08Z" style="fill:#e0e0e0"></path><path d="M312.05,333.08s-7.32-1.87-12.64,2.14C299.41,335.22,301,326.38,312.05,333.08Z" style="fill:#fafafa"></path><path d="M322.27,336.78s6.37-2.79,7.49,6C329.76,342.79,324,346.28,322.27,336.78Z" style="fill:#e0e0e0"></path><path d="M322.27,336.78s2.6,5,7.49,6C329.76,342.79,324,346.28,322.27,336.78Z" style="fill:#fafafa"></path><path d="M312.85,326s6.37-2.8,7.49,6C320.34,332,314.58,335.47,312.85,326Z" style="fill:#e0e0e0"></path><path d="M312.85,326s2.6,5,7.49,6C320.34,332,314.58,335.47,312.85,326Z" style="fill:#fafafa"></path><path d="M344.71,306.41s-4.1,9.34,8.8,11C353.51,317.39,358.63,309,344.71,306.41Z" style="fill:#e0e0e0"></path><path d="M344.71,306.41s7.36,3.81,8.8,11C353.51,317.39,358.63,309,344.71,306.41Z" style="fill:#fafafa"></path><path d="M355,319.64s-3.73,8.51,8,10C363,329.64,367.67,322,355,319.64Z" style="fill:#e0e0e0"></path><path d="M355,319.64s6.71,3.47,8,10C363,329.64,367.67,322,355,319.64Z" style="fill:#fafafa"></path><path d="M356.23,316.9s5.56,7.44,12.65-2C368.88,314.85,364.49,307,356.23,316.9Z" style="fill:#e0e0e0"></path><path d="M356.23,316.9s6.33-4.13,12.65-2C368.88,314.85,364.49,307,356.23,316.9Z" style="fill:#fafafa"></path><path d="M351.58,318.5s-6.37-2.79-7.49,6C344.09,324.51,349.85,328,351.58,318.5Z" style="fill:#e0e0e0"></path><path d="M351.58,318.5s-2.6,5-7.49,6C344.09,324.51,349.85,328,351.58,318.5Z" style="fill:#fafafa"></path><path d="M201,365.32c6.11-11.46,4.45-24.86-4.57-31.6a19.52,19.52,0,0,0-4.16-2.36c.38-5.33-1.22-10.13-5-12.92a12.45,12.45,0,0,0-8.06-2.35c3-15.33-2.41-29.56-13.49-33.33-12.52-4.27-27.49,6.42-33.43,23.88l0,0a11.9,11.9,0,0,0-14.22,3.64c-8.95-6.72-19.62-8.09-26.34-2.57-5.92,4.87-7.18,13.8-4.06,22.76a19.63,19.63,0,0,0-8.29,4c-8.45,6.94-9.67,19.84-3.65,30.81Z" style="fill:#f0f0f0"></path><path d="M93.41,332.31s3.44,7.82-7.37,9.2C86,341.51,81.75,334.44,93.41,332.31Z" style="fill:#e0e0e0"></path><path d="M93.41,332.31s-6.17,3.19-7.37,9.2C86,341.51,81.75,334.44,93.41,332.31Z" style="fill:#fafafa"></path><path d="M147.52,291.73s-3.43,7.83,7.38,9.2C154.9,300.93,159.19,293.86,147.52,291.73Z" style="fill:#e0e0e0"></path><path d="M147.52,291.73s6.18,3.19,7.38,9.2C154.9,300.93,159.19,293.86,147.52,291.73Z" style="fill:#fafafa"></path><path d="M163.17,298.81s-3.13,7.13,6.72,8.38C169.89,307.19,173.8,300.75,163.17,298.81Z" style="fill:#e0e0e0"></path><path d="M163.17,298.81s5.63,2.91,6.72,8.38C169.89,307.19,173.8,300.75,163.17,298.81Z" style="fill:#fafafa"></path><path d="M163.57,290.81s-5.43,2.12-.87,8C162.7,298.81,168.18,297.47,163.57,290.81Z" style="fill:#e0e0e0"></path><path d="M163.57,290.81s1.44,4.52-.87,8C162.7,298.81,168.18,297.47,163.57,290.81Z" style="fill:#fafafa"></path><path d="M172.91,293.73s-5.34-2.34-6.28,5C166.63,298.76,171.46,301.69,172.91,293.73Z" style="fill:#e0e0e0"></path><path d="M172.91,293.73s-2.18,4.21-6.28,5C166.63,298.76,171.46,301.69,172.91,293.73Z" style="fill:#fafafa"></path><path d="M183.45,336.91s-3.43,7.82,7.38,9.2C190.83,346.11,195.12,339,183.45,336.91Z" style="fill:#e0e0e0"></path><path d="M183.45,336.91s6.18,3.19,7.38,9.2C190.83,346.11,195.12,339,183.45,336.91Z" style="fill:#fafafa"></path><path d="M168.31,333.09s7.83-3.43,9.2,7.38C177.51,340.47,170.44,344.76,168.31,333.09Z" style="fill:#e0e0e0"></path><path d="M168.31,333.09s3.19,6.18,9.2,7.38C177.51,340.47,170.44,344.76,168.31,333.09Z" style="fill:#fafafa"></path><path d="M174.4,328.25s2.4,7.41,10.59,1.79C185,330,183.62,322.63,174.4,328.25Z" style="fill:#e0e0e0"></path><path d="M174.4,328.25s6.13-1.57,10.59,1.79C185,330,183.62,322.63,174.4,328.25Z" style="fill:#fafafa"></path><path d="M165.83,331.35s-5.33-2.34-6.27,5C159.56,336.38,164.38,339.31,165.83,331.35Z" style="fill:#e0e0e0"></path><path d="M165.83,331.35s-2.17,4.21-6.27,5C159.56,336.38,164.38,339.31,165.83,331.35Z" style="fill:#fafafa"></path><path d="M173.73,322.29s-5.34-2.34-6.28,5C167.45,327.33,172.28,330.26,173.73,322.29Z" style="fill:#e0e0e0"></path><path d="M173.73,322.29s-2.18,4.22-6.28,5C167.45,327.33,172.28,330.26,173.73,322.29Z" style="fill:#fafafa"></path><path d="M95.9,321.22s-3.43,7.82,7.38,9.19C103.28,330.41,107.56,323.34,95.9,321.22Z" style="fill:#e0e0e0"></path><path d="M95.9,321.22s6.17,3.19,7.38,9.19C103.28,330.41,107.56,323.34,95.9,321.22Z" style="fill:#fafafa"></path><path d="M104.52,332.3s-3.13,7.13,6.72,8.38C111.24,340.68,115.15,334.24,104.52,332.3Z" style="fill:#e0e0e0"></path><path d="M104.52,332.3s5.62,2.91,6.72,8.38C111.24,340.68,115.15,334.24,104.52,332.3Z" style="fill:#fafafa"></path><path d="M105.55,330s4.66,6.24,10.61-1.71C116.16,328.29,112.48,321.71,105.55,330Z" style="fill:#e0e0e0"></path><path d="M105.55,330s5.31-3.46,10.61-1.71C116.16,328.29,112.48,321.71,105.55,330Z" style="fill:#fafafa"></path><path d="M101.66,331.35s-5.34-2.34-6.28,5C95.38,336.38,100.21,339.31,101.66,331.35Z" style="fill:#e0e0e0"></path><path d="M101.66,331.35s-2.18,4.21-6.28,5C95.38,336.38,100.21,339.31,101.66,331.35Z" style="fill:#fafafa"></path><path d="M352.63,382.23h42.6l.7-8.26a11.52,11.52,0,0,0-12.2-12.49l-21.34,1.33A11.53,11.53,0,0,0,351.7,376Z" style="fill:#f5f5f5"></path><path d="M103.81,382.23H51.17L50,372.37a9,9,0,0,1,8.55-10l37.79-1.48a9,9,0,0,1,9.2,10.34Z" style="fill:#e6e6e6"></path><path d="M192.75,382.23H136.67l-.88-8a11.17,11.17,0,0,1,11.3-12.41l36.39.66a11.18,11.18,0,0,1,10.68,13.73Z" style="fill:#e6e6e6"></path><path d="M142,382.23H99.37l-.9-8.22a7.83,7.83,0,0,1,7.89-8.67l29.24.41a7.83,7.83,0,0,1,7.61,9.13Z" style="fill:#f5f5f5"></path><path d="M225.38,382.23H182.79l-.71-8.26a11.52,11.52,0,0,1,12.2-12.49l21.34,1.33A11.53,11.53,0,0,1,226.31,376Z" style="fill:#f5f5f5"></path><path d="M438.56,382.23H385.92l-1.16-9.86a9,9,0,0,1,8.55-10l37.78-1.48a9,9,0,0,1,9.21,10.34Z" style="fill:#e6e6e6"></path><path d="M310.28,382.23h52.64l1.16-9.86a9,9,0,0,0-8.55-10l-37.78-1.48a9,9,0,0,0-9.21,10.34Z" style="fill:#e6e6e6"></path><path d="M221.34,382.23h56.08l.88-8A11.17,11.17,0,0,0,267,361.84l-36.39.66a11.18,11.18,0,0,0-10.68,13.73Z" style="fill:#e6e6e6"></path><path d="M272.13,382.23h42.59l.9-8.22a7.83,7.83,0,0,0-7.89-8.67l-29.24.41a7.83,7.83,0,0,0-7.61,9.13Z" style="fill:#f5f5f5"></path><path d="M174.37,147.38c-19.93,10-86.68,6.49-83.56-13.16s18.1,0,18.1,0,1.32-20.37,15.27-21.09,16.37,18.62,16.37,18.62,3.22-15.91,11.81-11.92,7.78,16.85,7.78,16.85,6.87-4.91,11.32-2.46S177.38,145.88,174.37,147.38Z" style="fill:#f5f5f5"></path></g><g id="freepik--Shadow--inject-66"><ellipse id="freepik--path--inject-66" cx="245.18" cy="412.39" rx="193.89" ry="11.32" style="fill:#f5f5f5"></ellipse></g><g id="freepik--Tomato--inject-66"><ellipse cx="105.2" cy="282.26" rx="18.15" ry="15.35" style="fill:#197E81"></ellipse><path d="M103.8,267.93s2.79-10.65,5.41-9.6-2.62,3.66-2.7,9.6c0,0,5.84-5.24,9.68-2.1,0,0-5.58-.17-7.85,3.49,0,0,5.06,3.14,9.59,2.44,0,0-2.79,2.82-11.16.11,0,0,2.09,7.75-3,6.52a3.67,3.67,0,0,0,0-5.58s-10.64,5.58-11.34-1.05a9,9,0,0,0,9.42-1.57s-3.31-5.75-7.68-5.41C94.2,264.78,98.57,261.12,103.8,267.93Z" style="fill:#263238"></path><path d="M122.67,277.65c.73,6.26-2.33,15.82-16.46,15.82-13.36,0-17.12-3.75-17.51-4.18,2.86,5.46,9.16,8.32,16.5,8.32,10,0,18.14-5.33,18.14-15.35A15.7,15.7,0,0,0,122.67,277.65Z" style="opacity:0.2"></path><path d="M97.31,289.28s-9.29-3.73-6.8-9.77S92.92,285.25,97.31,289.28Z" style="fill:#fff;opacity:0.2"></path></g><g id="freepik--heart-rate--inject-66"><path d="M105.51,181.09l-1.63-3-5.41,12.31-5-15.35-2.07,6h-9c.37.43.77.85,1.19,1.27l15.13,15.06,15.12-15.06c.43-.42.83-.84,1.19-1.27Z" style="fill:#197E81"></path><path d="M89.75,178.82l3.75-10.88,5.28,16.13L103.67,173l3.19,5.86h9.85a13.4,13.4,0,0,0,2.17-7.07c0-5.77-3.85-9.62-9.68-9.62-5.44,0-7.3,2.52-10.48,6.16-3.19-3.64-5-6.16-10.48-6.16-5.84,0-9.69,3.85-9.69,9.62a13.32,13.32,0,0,0,2.18,7.07Z" style="fill:#197E81"></path><g style="opacity:0.30000000000000004"><path d="M105.51,181.09l-1.63-3-5.41,12.31-5-15.35-2.07,6h-9c.37.43.77.85,1.19,1.27l15.13,15.06,15.12-15.06c.43-.42.83-.84,1.19-1.27Z" style="fill:#fff"></path><path d="M89.75,178.82l3.75-10.88,5.28,16.13L103.67,173l3.19,5.86h9.85a13.4,13.4,0,0,0,2.17-7.07c0-5.77-3.85-9.62-9.68-9.62-5.44,0-7.3,2.52-10.48,6.16-3.19-3.64-5-6.16-10.48-6.16-5.84,0-9.69,3.85-9.69,9.62a13.32,13.32,0,0,0,2.18,7.07Z" style="fill:#fff"></path></g></g><g id="freepik--Banana--inject-66"><path d="M153,102.41l2.25.8s18.39,5.58,28.85-4.42S197.63,77,201.45,77.34s5.65,17.4-11.75,31.6-33,6.33-36.94-3l-1.53-1.68Z" style="fill:#197E81"></path><path d="M201.45,77.34c-3.82-.3-6.87,11.45-17.32,21.45-10,9.55-27.23,4.89-28.73,4.46l-2.64,2.64c3.89,9.38,19.54,17.24,36.94,3S205.26,77.65,201.45,77.34Z" style="fill:#fff;opacity:0.6000000000000001"></path><path d="M189.71,106.51s6.78,3,3.65,6.55-7.63,6.26-6.79,7.71S203.66,113.59,192,106Z" style="fill:#197E81"></path><path d="M189.71,106.51s6.78,3,3.65,6.55-7.63,6.26-6.79,7.71S203.66,113.59,192,106Z" style="fill:#fff;opacity:0.30000000000000004"></path><path d="M182.22,95.66c-7.47-8.36-20.07-2.06-19.85-3.51s14.51-5,21.37,2.75-1.37,12.66-11.21,14.27-18.4-4.66-18.4-4.66l1.15-1.3s16,4.86,26.65-2.62a3.06,3.06,0,0,0,.86-4.13A7.21,7.21,0,0,0,182.22,95.66Z" style="fill:#197E81"></path><path d="M182.22,95.66c-7.47-8.36-20.07-2.06-19.85-3.51s14.51-5,21.37,2.75-1.37,12.66-11.21,14.27-18.4-4.66-18.4-4.66l1.15-1.3s16,4.86,26.65-2.62a3.06,3.06,0,0,0,.86-4.13A7.21,7.21,0,0,0,182.22,95.66Z" style="fill:#fff;opacity:0.30000000000000004"></path><path d="M177.13,115.77c-11.92,3.34-21.45-2.84-24.37-9.88l1.37-1.38s8.55,6.26,18.4,4.66c5.31-.87,10.15-2.69,12.41-5.41,2.1.16,6.05,1.07,7.05,5.48,1.13,5-10.57,10.29-15.48,10.08-.87,0-4.35-.86.37-3.48Z" style="fill:#197E81"></path><path d="M177.13,115.77l-.44.17c-4.43,2.54-1,3.34-.18,3.38,4.91.21,16.61-5,15.48-10.08-1-4.41-5-5.32-7.05-5.48C191.09,105.13,177.13,115.77,177.13,115.77Z" style="fill:#fff;opacity:0.30000000000000004"></path></g><g id="freepik--Dumbbell--inject-66"><path d="M345.63,113.22a14.09,14.09,0,1,0,0-28.18h-4.24a14.09,14.09,0,1,0,0,28.18Z" style="fill:#197E81"></path><path d="M345.63,113.22a14.09,14.09,0,1,0,0-28.18h-4.24a14.09,14.09,0,1,0,0,28.18Z" style="fill:#fff;opacity:0.5"></path><circle cx="341.39" cy="99.13" r="14.09" transform="translate(188.85 420.23) rotate(-80.78)" style="fill:#197E81"></circle><path d="M340,102.69a3.56,3.56,0,1,0,0-7.12H321.78a3.56,3.56,0,1,0,0,7.12Z" style="fill:#263238"></path><path d="M309.51,113.22a14.09,14.09,0,1,0,0-28.18h-4.25a14.09,14.09,0,1,0,0,28.18Z" style="fill:#197E81"></path><path d="M309.51,113.22a14.09,14.09,0,1,0,0-28.18h-4.25a14.09,14.09,0,1,0,0,28.18Z" style="fill:#fff;opacity:0.5"></path><circle cx="305.26" cy="99.13" r="14.09" transform="translate(19.31 244.89) rotate(-45)" style="fill:#197E81"></circle><path d="M313.94,100.33a9,9,0,0,0,0-2.4l-1.5-.44a7.4,7.4,0,0,0-.4-1.26L313,95a9,9,0,0,0-1.42-1.94l-1.47.52A8.31,8.31,0,0,0,309,92.8l.05-1.56a8.53,8.53,0,0,0-2.29-.74l-.88,1.28q-.33,0-.66,0t-.66,0l-.88-1.28a8.42,8.42,0,0,0-2.29.74l0,1.56a9.07,9.07,0,0,0-1.07.77l-1.47-.52A9,9,0,0,0,297.51,95l.95,1.24a6.63,6.63,0,0,0-.41,1.26l-1.49.44a8,8,0,0,0,0,2.4l1.49.45a7.13,7.13,0,0,0,.41,1.26l-.95,1.23a8.76,8.76,0,0,0,1.41,1.94l1.47-.52a7.24,7.24,0,0,0,1.07.77l0,1.57a8.42,8.42,0,0,0,2.29.74l.88-1.29c.21,0,.43,0,.66,0s.44,0,.66,0l.88,1.29a8.53,8.53,0,0,0,2.29-.74l-.05-1.57a6.75,6.75,0,0,0,1.07-.77l1.47.52a8.8,8.8,0,0,0,1.42-1.94L312,102a8,8,0,0,0,.4-1.26Z" style="fill:#fff;opacity:0.30000000000000004"></path><path d="M304.87,102.69a3.56,3.56,0,1,0,0-7.12H302a3.56,3.56,0,0,0,0,7.12Z" style="fill:#263238"></path><path d="M305.54,99.13A3.56,3.56,0,1,1,302,95.57,3.56,3.56,0,0,1,305.54,99.13Z" style="fill:#fff;opacity:0.4"></path></g><g id="freepik--Drink--inject-66"><path d="M401.73,164.85c5.1,1.37,13.68,1.74,14.81-5.06,1.86-11.2-16.59-5.77-22.1-6.21a1,1,0,0,0-.18,2.09c4.6.36,20.25-3.92,20.29,3.06,0,5.94-8.23,5.2-12.09,4.16-1.29-.35-2,1.61-.73,2Z" style="fill:#263238"></path><path d="M404,164.89l.25-2.85-22.6-2-.24,2.85a3.05,3.05,0,0,0-2.07,2.63l-4,46a3.07,3.07,0,0,0,2.79,3.33l20.12,1.76a3.08,3.08,0,0,0,3.32-2.79l4-46A3,3,0,0,0,404,164.89Z" style="fill:#197E81"></path><path d="M404,164.89l.25-2.85-22.6-2-.24,2.85a3.05,3.05,0,0,0-2.07,2.63l-4,46a3.07,3.07,0,0,0,2.79,3.33l20.12,1.76a3.08,3.08,0,0,0,3.32-2.79l4-46A3,3,0,0,0,404,164.89Z" style="fill:#fff;opacity:0.2"></path><rect x="380.03" y="155.41" width="26.33" height="6.52" rx="2.07" transform="translate(15.33 -33.67) rotate(5)" style="fill:#197E81"></rect><rect x="380.03" y="155.41" width="26.33" height="6.52" rx="2.07" transform="translate(15.33 -33.67) rotate(5)" style="opacity:0.30000000000000004"></rect><path d="M395.15,173.88a24.52,24.52,0,0,0-13.71.13l-3.3,37.78a.27.27,0,0,0,.25.3l20.12,1.76a.28.28,0,0,0,.3-.25l3.42-39A18.35,18.35,0,0,1,395.15,173.88Z" style="fill:#fff;opacity:0.9"></path><path d="M395,183.43a6.35,6.35,0,1,1-5.77-6.88A6.36,6.36,0,0,1,395,183.43Z" style="fill:#197E81"></path><path d="M395,183.43a6.35,6.35,0,1,1-5.77-6.88A6.36,6.36,0,0,1,395,183.43Z" style="fill:#fff;opacity:0.4"></path><g style="opacity:0.9"><path d="M388,178.05a4.61,4.61,0,0,0-1.55.49.58.58,0,0,0-.17.88l2.09,2.48.28-3.23A.58.58,0,0,0,388,178.05Z" style="fill:#fff"></path><path d="M387.75,182.4l-2.08-2.48a.57.57,0,0,0-.89,0,4.76,4.76,0,0,0-.75,1.45.57.57,0,0,0,.5.74Z" style="fill:#fff"></path><path d="M387.69,183.19l-3.23-.29a.58.58,0,0,0-.62.65,4.61,4.61,0,0,0,.49,1.55.57.57,0,0,0,.87.17Z" style="fill:#fff"></path><path d="M389.42,178.74l-.28,3.23,2.48-2.09a.57.57,0,0,0,0-.89,4.76,4.76,0,0,0-1.45-.75A.57.57,0,0,0,389.42,178.74Z" style="fill:#fff"></path><path d="M389.58,183.35l2.08,2.48a.57.57,0,0,0,.89,0,4.82,4.82,0,0,0,.75-1.44.58.58,0,0,0-.5-.75Z" style="fill:#fff"></path><path d="M389.64,182.57l3.23.28a.57.57,0,0,0,.62-.64,4.66,4.66,0,0,0-.49-1.56.57.57,0,0,0-.87-.17Z" style="fill:#fff"></path><path d="M388.19,183.79l-2.48,2.08a.57.57,0,0,0,0,.89,4.76,4.76,0,0,0,1.45.75.57.57,0,0,0,.74-.5Z" style="fill:#fff"></path><path d="M389,183.86l-.28,3.22a.57.57,0,0,0,.65.62,4.61,4.61,0,0,0,1.55-.49.57.57,0,0,0,.17-.87Z" style="fill:#fff"></path></g><circle cx="392.34" cy="202.8" r="6.35" transform="translate(98.49 532.51) rotate(-75.63)" style="fill:#197E81"></circle><circle cx="392.34" cy="202.8" r="6.35" transform="translate(98.49 532.51) rotate(-75.63)" style="fill:#fff;opacity:0.4"></circle><g style="opacity:0.9"><path d="M391.67,198a5.1,5.1,0,0,0-1.55.49.57.57,0,0,0-.17.88l2.08,2.48.28-3.22A.57.57,0,0,0,391.67,198Z" style="fill:#fff"></path><path d="M391.43,202.33l-2.08-2.48a.58.58,0,0,0-.9,0,4.94,4.94,0,0,0-.75,1.44.59.59,0,0,0,.5.75Z" style="fill:#fff"></path><path d="M391.36,203.11l-3.23-.28a.57.57,0,0,0-.62.64A5,5,0,0,0,388,205a.57.57,0,0,0,.88.17Z" style="fill:#fff"></path><path d="M393.1,198.66l-.29,3.23,2.49-2.08a.57.57,0,0,0,0-.89,4.73,4.73,0,0,0-1.44-.76A.57.57,0,0,0,393.1,198.66Z" style="fill:#fff"></path><path d="M393.25,203.28l2.08,2.48a.58.58,0,0,0,.9,0,4.81,4.81,0,0,0,.75-1.44.57.57,0,0,0-.5-.74Z" style="fill:#fff"></path><path d="M393.32,202.49l3.23.29a.58.58,0,0,0,.62-.65,5.1,5.1,0,0,0-.49-1.55.58.58,0,0,0-.88-.17Z" style="fill:#fff"></path><path d="M391.87,203.71l-2.49,2.09a.57.57,0,0,0,0,.89,4.94,4.94,0,0,0,1.44.75.57.57,0,0,0,.74-.5Z" style="fill:#fff"></path><path d="M392.65,203.78l-.28,3.23a.57.57,0,0,0,.64.62,4.84,4.84,0,0,0,1.55-.49.57.57,0,0,0,.17-.88Z" style="fill:#fff"></path></g></g><g id="freepik--Device--inject-66"><path d="M402.77,267.58l.35-3.95a2.63,2.63,0,0,0-2.4-2.85L388,259.66a2.64,2.64,0,0,0-2.86,2.4l-.34,3.94a8.53,8.53,0,0,1-3.67,6.4,10.33,10.33,0,0,0-4.62,7.74L374.92,298a10.34,10.34,0,0,0,3.2,8.42,8.5,8.5,0,0,1,2.51,6.94l-.35,3.95a2.63,2.63,0,0,0,2.4,2.85l12.75,1.12a2.64,2.64,0,0,0,2.86-2.4l.34-3.94a8.53,8.53,0,0,1,3.67-6.4,10.31,10.31,0,0,0,4.62-7.74l1.56-17.83a10.34,10.34,0,0,0-3.2-8.42A8.5,8.5,0,0,1,402.77,267.58Z" style="fill:#197E81"></path><path d="M402.77,267.58l.35-3.95a2.63,2.63,0,0,0-2.4-2.85L388,259.66a2.64,2.64,0,0,0-2.86,2.4l-.34,3.94a8.53,8.53,0,0,1-3.67,6.4,10.33,10.33,0,0,0-4.62,7.74L374.92,298a10.34,10.34,0,0,0,3.2,8.42,8.5,8.5,0,0,1,2.51,6.94l-.35,3.95a2.63,2.63,0,0,0,2.4,2.85l12.75,1.12a2.64,2.64,0,0,0,2.86-2.4l.34-3.94a8.53,8.53,0,0,1,3.67-6.4,10.31,10.31,0,0,0,4.62-7.74l1.56-17.83a10.34,10.34,0,0,0-3.2-8.42A8.5,8.5,0,0,1,402.77,267.58Z" style="fill:#fff;opacity:0.4"></path><rect x="380.27" y="275.78" width="22.86" height="29.35" rx="6.18" transform="translate(26.81 -33.03) rotate(5)" style="fill:#263238"></rect><rect x="408.18" y="283.38" width="3.01" height="6.14" rx="0.75" transform="matrix(1, 0.09, -0.09, 1, 26.52, -34.62)" style="fill:#197E81"></rect><path d="M384.1,286s-1.43-3.75.35-4.1,1.63,3.57,1.63,3.57Z" style="fill:#fff"></path><path d="M384.48,286.53l1.75-.25s.4,1.33-.66,1.46S384.48,286.53,384.48,286.53Z" style="fill:#fff"></path><path d="M389.72,285.44s2.06-3.45.36-4.1-2.22,3.23-2.22,3.23Z" style="fill:#fff"></path><path d="M389.37,285.93l-1.68-.56s-.75,1.23.28,1.54S389.37,285.93,389.37,285.93Z" style="fill:#fff"></path><path d="M385.39,298.6c-1.23-.11-3.8-.46-2.23-4.31,0,0,.3,1.49,1,1.57,0,0-1.27-3.25,2.31-5.39,0,0-.66,2.28.59,3.41.67.6.17,1.78.17,1.78a4.24,4.24,0,0,0,.64-2.54S390.49,299.05,385.39,298.6Z" style="fill:#fff"></path><path d="M399.69,287l-7.19-.63a1.06,1.06,0,0,1-1-1.17h0a1.08,1.08,0,0,1,1.17-1l7.19.63a1.06,1.06,0,0,1,1,1.17h0A1.08,1.08,0,0,1,399.69,287Z" style="fill:#fff"></path><path d="M396,297.58l-4.42-.39a1.06,1.06,0,0,1-1-1.17h0a1.08,1.08,0,0,1,1.17-1l4.42.39a1.08,1.08,0,0,1,1,1.17h0A1.09,1.09,0,0,1,396,297.58Z" style="fill:#fff"></path></g><g id="freepik--character-2--inject-66"><path d="M317,226.25s8.39,13.26,15.16,15.95,22.57-8.59,22.57-8.59l6.26-1.74a2.54,2.54,0,0,0,1.58-1.84l.9-4.11a2.19,2.19,0,0,0-.36-1.74l-.72-1a2.19,2.19,0,0,0-3.36-.26l-5.75,5.92s-14.8,7-17.78,3.94-2.95-3.05-9.21-11.47Z" style="fill:#ffb573"></path><path d="M311.74,205.81c-2.83,1.69-6.47,9.85,5.53,23.57l10.46-8S320.58,200.5,311.74,205.81Z" style="fill:#197E81"></path><path d="M324.66,223.74c-2.31-9.16-5.56-12.65-5.56-12.65L317,214l-3.79,5.34,1,6.16c.89,1.24,1.91,2.53,3.08,3.87Z" style="opacity:0.1"></path><path d="M280.81,316.5A66.92,66.92,0,0,1,278.15,329c-11.91,4.89-40.94,46.83-40.94,46.83l4.71,4.47S281.3,349.83,291.64,337c3-3.75,5.11-11.81,7.3-16.91A33.78,33.78,0,0,1,280.81,316.5Z" style="fill:#ffb573"></path><path d="M243,379.05l-5.42-5a.67.67,0,0,0-.85-.06l-5.81,4a1.13,1.13,0,0,0-.3,1.58.9.9,0,0,0,.16.18c2.28,2,4.4,3.76,7.2,6.35,3.31,3.05,2.1,2.67,5.94,6.31,2.32,2.19,5.2-.08,4.33-1.13-4-4.76-4-7.36-4.31-10.6A2.74,2.74,0,0,0,243,379.05Z" style="fill:#263238"></path><path d="M280.81,316.5a42.3,42.3,0,0,1-.72,4.92,38.1,38.1,0,0,0,17.19,3c.56-1.56,1.1-3,1.66-4.33A33.78,33.78,0,0,1,280.81,316.5Z" style="opacity:0.1"></path><path d="M281.78,285.08c.16,9.91-1.61,23.51-2.28,31.92,3.38,1.66,11.66,5.17,20.21,4.47a220,220,0,0,0,10.49-29.85c3.71-13.44,3-32.61,3-32.61l-33.8-2.11C278.05,277.52,281.78,285.08,281.78,285.08Z" style="fill:#263238"></path><path d="M313.17,259l-33.8-2.11c-1.32,20.62,2.41,28.18,2.41,28.18.05,3.39-.12,7.21-.4,11.1,2.06,5.42,6.21,16.2,10.06,24.81a32.22,32.22,0,0,0,8.27.48,220,220,0,0,0,10.49-29.85C313.91,278.18,313.17,259,313.17,259Z" style="opacity:0.5"></path><path d="M318.05,331.26c-.58-4.12-4.72-19.08-4.72-19.08-8.28,4.42-14,5.84-17.14,6.24,1.5,3.52,4.45,10.69,5.83,13.78,0,0-1.29,14.69,16.31,72.21l7.07-1.12S320.57,349.15,318.05,331.26Z" style="fill:#ffb573"></path><path d="M324.74,401.82l-7.18,1.57a.67.67,0,0,0-.54.66l0,7.08a1.13,1.13,0,0,0,1.12,1.15l.24,0c3-.7,5.61-1.44,9.34-2.23,4.4-.95,3.4-.18,8.58-1.22,3.13-.63,2.93-4.3,1.58-4.19-6.21.54-8.36-.93-11.15-2.59A2.77,2.77,0,0,0,324.74,401.82Z" style="fill:#263238"></path><path d="M313.33,312.18c-8.28,4.42-14,5.84-17.14,6.24.41,1,.94,2.22,1.51,3.59a43.21,43.21,0,0,0,16.48-6.69C313.68,313.43,313.33,312.18,313.33,312.18Z" style="opacity:0.1"></path><path d="M314.36,313.27s-6.84-26.14-6.67-35c.1-5.23,4.11-20.53,4.11-20.53L280.31,254s-9.35,17.37,0,31.34c0,0,7.76,18.43,15,34.53A57.26,57.26,0,0,0,314.36,313.27Z" style="fill:#263238"></path><path d="M297.22,181.84c.11,3.53-.67,8-3.72,10.12-1.46,1-3.24,1.55-4.44,2.92s-1.72,3.13-2.43,4.68c-.24.52.54,1,.79.46,1-2.15,1.66-4.31,3.7-5.67,1.81-1.2,3.61-1.75,4.88-3.64a15.47,15.47,0,0,0,2.13-8.87c0-.58-.93-.58-.91,0Z" style="fill:#1a2e35"></path><path d="M297.69,177.31s.8-7.34-9.8-3.31c-10.15,3.86-6.29,9.5-15.85,14.67s5.45,9.07,2,13.62,8.14,5,11.32-3.18,7.6-5.7,10.57-9.77c1.75-2.41,2.51-7.5,2.51-7.5Z" style="fill:#1a2e35"></path><path d="M303.59,188.67s-.76,3.1-3.69,2S302.19,190.35,303.59,188.67Z" style="fill:#1a2e35"></path><path d="M300.79,182.73a5.38,5.38,0,0,0-1.7-.11,1.74,1.74,0,0,0-.48.38.72.72,0,0,1-1.2-.25,7.91,7.91,0,0,1,.43-6.5s.55,1,.89,1.07c.51.12,1.89-.85,1.89-.85Z" style="fill:#197E81"></path><path d="M277.65,255.08s25.17,4,37.84,4.3a62,62,0,0,1,1.78-17.72c2.35-8.35,9-15.4.91-32.66-4.4-9.44-29.86-10.74-33.73-1.93C280.44,216.19,291.17,221.34,277.65,255.08Z" style="fill:#197E81"></path><path d="M312.24,198.51l-6.81-7.85a12.37,12.37,0,0,1-5,10.5s.69,4.93,11.22,13.86c6.55-4.77,1.9-10.58,1.9-10.58S309.72,202,312.24,198.51Z" style="fill:#ffb573"></path><path d="M311.7,202.29a3.6,3.6,0,0,1,.54-3.78l-6.81-7.85a12.53,12.53,0,0,1-.2,2.87A13.92,13.92,0,0,0,311.7,202.29Z" style="opacity:0.1"></path><path d="M303.36,179.34c-.5,7.71-.87,11,2.5,15.37,5.06,6.64,14.64,5.56,17.44-1.84,2.51-6.66,2.91-18.19-4.21-22.14a10.55,10.55,0,0,0-15.73,8.61Z" style="fill:#ffb573"></path><path d="M315.3,182.88c-.07.63.2,1.18.6,1.23s.8-.42.89-1-.2-1.17-.6-1.22S315.41,182.3,315.3,182.88Z" style="fill:#263238"></path><path d="M322.34,183.79c-.08.63.19,1.17.59,1.23s.8-.42.89-1-.2-1.17-.6-1.22S322.42,183.17,322.34,183.79Z" style="fill:#263238"></path><path d="M323,182.77l1.55-.24S323.67,183.6,323,182.77Z" style="fill:#263238"></path><path d="M320,184.64a16.8,16.8,0,0,0,1.73,4.26,2.8,2.8,0,0,1-2.28.14Z" style="fill:#ed893e"></path><path d="M315.77,191a5.66,5.66,0,0,0,.91.19.2.2,0,0,0,.21-.15h0a.19.19,0,0,0-.17-.2,5,5,0,0,1-3.77-2.44.19.19,0,0,0-.34.16A5.15,5.15,0,0,0,315.77,191Z" style="fill:#263238"></path><path d="M312.65,181.11a.36.36,0,0,0,.41-.14,4.38,4.38,0,0,1,3.17-1.48.37.37,0,1,0,0-.73h0a5,5,0,0,0-3.77,1.8.36.36,0,0,0,.1.5h0A.14.14,0,0,0,312.65,181.11Z" style="fill:#263238"></path><path d="M324.86,180.81a.37.37,0,0,0,.38-.61,3.62,3.62,0,0,0-3.19-1.19.36.36,0,0,0-.3.4v0a.36.36,0,0,0,.42.3h0a3,3,0,0,1,2.49,1A.4.4,0,0,0,324.86,180.81Z" style="fill:#263238"></path><path d="M316,181.92l1.54-.24S316.64,182.71,316,181.92Z" style="fill:#263238"></path><path d="M305.23,185a9.64,9.64,0,0,0,2.56-6.26c.1-3.88,6.19-8.06,14-5.84,0,0,2.24-7-3.3-4.07,0,0-8.84-6-16.43,2.89-5.28,6.21-2.42,12.93-.19,16.45a1.45,1.45,0,0,0,2.63-.4Z" style="fill:#263238"></path><path d="M300.54,185a5.5,5.5,0,0,0,2.39,3.48c1.64,1,3-.29,3.05-2.14,0-1.67-.84-4.22-2.71-4.54a2.48,2.48,0,0,0-2.73,3.2Z" style="fill:#ffb573"></path><path d="M321.09,172.74s2.94-1.26,3.8,1.76S323.28,172.86,321.09,172.74Z" style="fill:#1a2e35"></path><path d="M317.33,172.19s-3.18.33-2.46,3.38S315.47,173.35,317.33,172.19Z" style="fill:#1a2e35"></path><path d="M302.9,184.87a1.59,1.59,0,0,1,1.26,1.88,2.94,2.94,0,0,0,1.09,2.76,1.09,1.09,0,0,1-.83.51S300.06,185.71,302.9,184.87Z" style="fill:#197E81"></path><path d="M302.9,184.87a1.59,1.59,0,0,1,1.26,1.88,2.94,2.94,0,0,0,1.09,2.76,1.09,1.09,0,0,1-.83.51S300.06,185.71,302.9,184.87Z" style="fill:#fff;opacity:0.5"></path><path d="M295.47,214.09l-3.11-1.65-8.73,3.15-.28.73c.2,5.21.86,11.88-.38,21.08C294.59,222.94,295.47,214.09,295.47,214.09Z" style="opacity:0.1"></path><path d="M288.68,221.46s-6.09,14.45-12.32,18.23S252.69,235,252.69,235l-6.46-.68a2.54,2.54,0,0,1-1.87-1.55l-1.56-3.92a2.18,2.18,0,0,1,.06-1.77l.55-1.11a2.19,2.19,0,0,1,3.27-.81l6.65,4.88s15.76,4.49,18.19.95,2.4-3.49,7.18-12.83Z" style="fill:#ffb573"></path><path d="M293.3,203.35c2.83,1.7,6.46,9.86-5.54,23.57l-10.46-8S284.46,198,293.3,203.35Z" style="fill:#197E81"></path><path d="M247.16,229.2l-1.21-.1c4.75-57.65-3.39-59.71-13.69-62.32-5.29-1.34-11.28-2.85-16.16-12-4.54-8.48-1.12-17.69,9.13-24.63,11.94-8.07,30.7-11.66,49-9.35a87.72,87.72,0,0,1,57,31.37c13.76,16.38,18.06,30.35,21.52,41.57l.94,3c6,19.15,5.39,29.52,5.36,29.95l-1.21-.08c0-.1.64-10.6-5.31-29.51l-.94-3c-3.43-11.12-7.69-25-21.29-41.15-31.86-37.94-81.94-37-104.38-21.79-9.83,6.65-13,15.05-8.74,23.05,4.63,8.66,10.1,10.05,15.39,11.39s10.25,2.6,13.2,11C248.92,185.74,249.37,202.43,247.16,229.2Z" style="fill:#197E81"></path><g style="opacity:0.30000000000000004"><path d="M247.16,229.2l-1.21-.1c4.75-57.65-3.39-59.71-13.69-62.32-5.29-1.34-11.28-2.85-16.16-12-4.54-8.48-1.12-17.69,9.13-24.63,11.94-8.07,30.7-11.66,49-9.35a87.72,87.72,0,0,1,57,31.37c13.76,16.38,18.06,30.35,21.52,41.57l.94,3c6,19.15,5.39,29.52,5.36,29.95l-1.21-.08c0-.1.64-10.6-5.31-29.51l-.94-3c-3.43-11.12-7.69-25-21.29-41.15-31.86-37.94-81.94-37-104.38-21.79-9.83,6.65-13,15.05-8.74,23.05,4.63,8.66,10.1,10.05,15.39,11.39s10.25,2.6,13.2,11C248.92,185.74,249.37,202.43,247.16,229.2Z" style="fill:#fff"></path></g><rect x="244.54" y="222.06" width="4.04" height="14.17" style="fill:#197E81"></rect><rect x="244.54" y="222.06" width="4.04" height="2.42" style="opacity:0.1"></rect><rect x="244.54" y="234.61" width="4.04" height="1.62" style="opacity:0.1"></rect><path d="M248.59,223.18h-4.07a1.12,1.12,0,0,1-1.12-1.12h0a1.12,1.12,0,0,1,1.12-1.11h4.07a1.12,1.12,0,0,1,1.12,1.11h0A1.12,1.12,0,0,1,248.59,223.18Z" style="fill:#197E81"></path><path d="M248.59,237.81h-4.07a1.12,1.12,0,0,1-1.12-1.11h0a1.12,1.12,0,0,1,1.12-1.12h4.07a1.12,1.12,0,0,1,1.12,1.12h0A1.12,1.12,0,0,1,248.59,237.81Z" style="fill:#197E81"></path><rect x="356.41" y="219.61" width="4.04" height="14.17" style="fill:#197E81"></rect><rect x="356.41" y="219.61" width="4.04" height="2.42" style="opacity:0.1"></rect><rect x="356.41" y="232.15" width="4.04" height="1.62" style="opacity:0.1"></rect><path d="M360.47,220.73H356.4a1.12,1.12,0,0,1-1.12-1.12h0a1.12,1.12,0,0,1,1.12-1.12h4.07a1.12,1.12,0,0,1,1.12,1.12h0A1.12,1.12,0,0,1,360.47,220.73Z" style="fill:#197E81"></path><path d="M360.47,235.36H356.4a1.12,1.12,0,0,1-1.12-1.12h0a1.12,1.12,0,0,1,1.12-1.12h4.07a1.12,1.12,0,0,1,1.12,1.12h0A1.12,1.12,0,0,1,360.47,235.36Z" style="fill:#197E81"></path></g><g id="freepik--character-1--inject-66"><path d="M177.82,212s-13.51,6.05-20.12,3.56-13.56-22.61-13.56-22.61l-4.29-5.67a2.19,2.19,0,0,1,0-2.65l3.55-4.62a2.86,2.86,0,0,1,2.11-1.09h.23a2.79,2.79,0,0,1,2.91,2.85l-.15,7s10.65,17.07,14.81,16.8,10.94-3.11,10.94-3.11Z" style="fill:#ffc3bd"></path><path d="M191.06,201.55c.48,3-1,10.82-18.47,13.63l-2.69-11.86S189.35,190.84,191.06,201.55Z" style="fill:#263238"></path><path d="M149.22,180.57c1.76,2.24,4.51,3,6.13,1.74s1.5-4.13-.27-6.37-4.5-3-6.12-1.74S147.45,178.33,149.22,180.57Z" style="fill:#197E81"></path><path d="M149.22,180.57a5.28,5.28,0,0,1-1-5.4c1.38-.73,3.67.25,5.32,2.34,1.39,1.76,1.89,3.78,1.4,5.07C153.27,183.44,150.84,182.62,149.22,180.57Z" style="opacity:0.2"></path><path d="M137.83,189.55c.76,1,4.41-.65,8.15-3.61s6.17-6.13,5.41-7.09-4.41.66-8.15,3.61S137.07,188.59,137.83,189.55Z" style="fill:#197E81"></path><path d="M142.48,188.34c-2.3,1.33-4.14,1.86-4.65,1.21s.47-2.38,2.36-4.35a6.58,6.58,0,0,1,1.22,1.2A7.17,7.17,0,0,1,142.48,188.34Z" style="opacity:0.2"></path><path d="M134,192.56c1.76,2.24,4.5,3,6.12,1.74s1.51-4.12-.26-6.36-4.51-3-6.13-1.74S132.24,190.33,134,192.56Z" style="fill:#197E81"></path><path d="M187.64,209.31a22.54,22.54,0,0,1-8.41,4.35c.16-12,6-12.13,6-12.13l1.11.63Z" style="opacity:0.6000000000000001"></path><path d="M204.05,302.26l-6.79,21.18a57.78,57.78,0,0,1,0,17.95C195.72,351.46,187,404.47,187,404.47l-6.55.78s1-67.94,2.34-82.64,3-25.2,3-25.2Z" style="fill:#ffc3bd"></path><path d="M185.78,297.41l18.27,4.85-4.37,13.65-15.92-2.76C184.83,303.61,185.78,297.41,185.78,297.41Z" style="opacity:0.1"></path><path d="M217.15,303.07s7.49,31.73,35,100.55l6.27-1.57s-12.3-71.5-19.82-79.42l-3.8-24.09Z" style="fill:#ffc3bd"></path><path d="M234.77,298.54,237,312.38l-16.43,3c-2.47-8.32-3.38-12.28-3.38-12.28Z" style="opacity:0.1"></path><path d="M216,279.66s-5.3,4.89-6.67,8.85-8,25.31-8,25.31l-18-3.23s1.86-20,3.89-34.28,3.6-22.66,3.35-23.88l34-2.87S231.38,274.45,216,279.66Z" style="fill:#197E81"></path><path d="M210.28,265.59l5.63,14.13c-.6.57-5.32,5.09-6.6,8.79-.36,1-1.05,3.17-1.89,5.81-2.54-14.32-1.15-30.06-1.15-30.06Z" style="opacity:0.1"></path><path d="M205.85,252.54s-3.29,11.4,5.82,35.65c2.51,6.69,6.55,24.58,6.55,24.58l19.46-3.88-4.21-23.72s.86-23.52-5.77-34.84Z" style="fill:#197E81"></path><path d="M180.53,403.74l6.81-.12a.62.62,0,0,1,.62.49l2.46,6.52a1.06,1.06,0,0,1-.79,1.26l-.22,0c-2.84-.05-5.35-.2-8.88-.2-4.16,0-3.1.5-8,.57-2.95,0-3.49-3.31-2.24-3.47,5.72-.72,6.31-2.45,8.52-4.5A2.58,2.58,0,0,1,180.53,403.74Z" style="fill:#263238"></path><path d="M251.66,402.17l6.64-1.54a.61.61,0,0,1,.7.35l3.77,5.86a1.05,1.05,0,0,1-.51,1.39.9.9,0,0,1-.21.08c-2.78.54-5.28.91-8.72,1.66-4.07.87-2.93,1.13-7.7,2.22-2.87.66-4.1-2.51-2.91-2.93,5.44-1.9,5.66-3.71,7.39-6.17A2.52,2.52,0,0,1,251.66,402.17Z" style="fill:#263238"></path><path d="M187.11,162.78s-4.62-.38-2.15,6.42l3-2.83,2-3.78Z" style="fill:#263238"></path><path d="M187.11,162.78s-4.62-.38-2.15,6.42l3-2.83,2-3.78Z" style="opacity:0.6000000000000001"></path><path d="M228.91,251.6s-7.73.69-39.08,2.52c0,0-1.75-8.08-4-21.92-2.53-15.77-5.42-30.29-1.69-34.21,4.24-4.45,24.41-3.83,33.68-3.8a5.79,5.79,0,0,1,5.76,5.23Z" style="fill:#263238"></path><path d="M210.83,194.14c-.05,2.13-1.93,6.61-12.42,14.77,0,0-8-7.73-7.21-13.64C196.81,194.27,204.48,194.13,210.83,194.14Z" style="fill:#197E81"></path><path d="M198.37,206.29s-6.13-8.16-4.46-11.42a128.22,128.22,0,0,1,13.82-.72C207.72,195.69,206.72,199.73,198.37,206.29Z" style="fill:#ffc3bd"></path><path d="M198.19,203.94l-4-7c3-2.18,2.31-4.16.7-7.14l7.07-10c.29,4.95,1.15,12.11,5.27,14.42a4.43,4.43,0,0,1-.43,2.34Z" style="fill:#ffc3bd"></path><path d="M196,192.27a16.43,16.43,0,0,0-1.13-2.43l4.44-6.31c.92.31,2.46-.05,3,.47,0,.32.09.64.15,1C202.08,187.4,199,191,196,192.27Z" style="opacity:0.2;isolation:isolate"></path><path d="M205.11,171.43c.29,7.56.57,10.75-2.84,15-5.13,6.37-14.48,5.06-17-2.25-2.28-6.6-2.37-17.89,4.7-21.57a10.32,10.32,0,0,1,14,4.25A10.19,10.19,0,0,1,205.11,171.43Z" style="fill:#ffc3bd"></path><path d="M193.33,174.59c.06.61-.22,1.14-.61,1.18s-.78-.43-.84-1,.22-1.14.61-1.18S193.24,174,193.33,174.59Z" style="fill:#1a2e35"></path><path d="M186.42,175.29c.06.62-.22,1.14-.61,1.18s-.78-.43-.84-1,.22-1.14.61-1.17S186.36,174.68,186.42,175.29Z" style="fill:#1a2e35"></path><path d="M188.67,176.18a16.52,16.52,0,0,1-1.81,4.13,2.72,2.72,0,0,0,2.23.19Z" style="fill:#ff8935"></path><path d="M192.66,182.56a5.29,5.29,0,0,1-.9.16.19.19,0,0,1-.2-.16h0a.2.2,0,0,1,.17-.2,4.85,4.85,0,0,0,3.76-2.29.19.19,0,0,1,.25-.07.18.18,0,0,1,.08.24A5.07,5.07,0,0,1,192.66,182.56Z" style="fill:#1a2e35"></path><path d="M196,172.92a.37.37,0,0,1-.4-.15,4.23,4.23,0,0,0-3-1.53.36.36,0,0,1-.36-.37.37.37,0,0,1,.37-.35h0a4.9,4.9,0,0,1,3.65,1.87.37.37,0,0,1-.11.49h0A.21.21,0,0,1,196,172.92Z" style="fill:#1a2e35"></path><path d="M184,172.31a.37.37,0,0,1-.35-.1.36.36,0,0,1,0-.51,3.54,3.54,0,0,1,3.15-1.09.35.35,0,0,1,.28.4v0a.36.36,0,0,1-.42.28h0a2.9,2.9,0,0,0-2.46.89A.45.45,0,0,1,184,172.31Z" style="fill:#1a2e35"></path><path d="M202.88,178.08l-2.45-.46s1.61-5.61.46-7.05-3.79-2.59-4.65-5.27-14,2.59-11.87-8.45c0,0,1,3,2.49,4.09,0,0-2.19-7.57,6.15-6.73s13.59,9.56,13.59,9.56,10.78,7.07-.38,17.42a1.65,1.65,0,0,1-2.65-.55Z" style="fill:#263238"></path><path d="M207.73,177a5.39,5.39,0,0,1-2.43,3.34c-1.64,1-3-.36-2.93-2.18,0-1.63.93-4.11,2.77-4.37a2.45,2.45,0,0,1,2.71,2.15A2.42,2.42,0,0,1,207.73,177Z" style="fill:#ffc3bd"></path><path d="M206.21,164.34s2.95-4.41,5.55-.86S208.27,163.07,206.21,164.34Z" style="fill:#263238"></path><path d="M204.83,176.48a1.88,1.88,0,0,0-1.5,2.22s.47,1.53-1.29,3.28a1.3,1.3,0,0,0,1,.6S208.2,177.47,204.83,176.48Z" style="fill:#197E81"></path><path d="M204.83,176.48a1.88,1.88,0,0,0-1.5,2.22s.47,1.53-1.29,3.28a1.3,1.3,0,0,0,1,.6S208.2,177.47,204.83,176.48Z" style="fill:#fff;opacity:0.8"></path><path d="M224.11,204.78l1.17,12.53a21.71,21.71,0,0,1-8-12.63l2.91-.74Z" style="opacity:0.6000000000000001"></path><path d="M226.21,207.78s15.6,1.6,21.9-2.06,9.25-24.32,9.25-24.32l3.14-7.87a3,3,0,0,0-1.21-3.66l-2.87-1.76a3,3,0,0,0-2-.41l-1.07.16a3,3,0,0,0-2.54,3.22l.77,9s-4.53,16.74-8.8,17.17-4.22.43-14.71.15Z" style="fill:#ffc3bd"></path><path d="M214,200.54c-.12,3.4,2.37,9.56,20.57,8.6l.2-13.15S214.35,189.1,214,200.54Z" style="fill:#263238"></path><path d="M251.24,170c-1.23,2.57-3.73,3.94-5.59,3.05s-2.37-3.7-1.14-6.27,3.73-3.93,5.59-3S252.47,167.43,251.24,170Z" style="fill:#197E81"></path><path d="M251.24,170a5.28,5.28,0,0,0-.19-5.49c-1.51-.41-3.53,1.05-4.68,3.45-1,2-1,4.11-.25,5.26C247.92,173.7,250.11,172.36,251.24,170Z" style="opacity:0.2"></path><path d="M264.32,176.27c-.52,1.1-4.44.33-8.74-1.73s-7.37-4.63-6.84-5.73,4.45-.33,8.75,1.73S264.85,175.16,264.32,176.27Z" style="fill:#197E81"></path><path d="M259.52,176.11c2.54.79,4.45.91,4.8.16s-1-2.22-3.25-3.73a6.59,6.59,0,0,0-.93,1.44A7,7,0,0,0,259.52,176.11Z" style="opacity:0.2"></path><path d="M268.72,178.37c-1.23,2.57-3.74,3.93-5.6,3s-2.37-3.69-1.14-6.26,3.74-3.94,5.6-3.05S270,175.8,268.72,178.37Z" style="fill:#197E81"></path></g></svg>